<?xml version="1.0" encoding="UTF-8"?><svg id="_Слой_2" xmlns="http://www.w3.org/2000/svg" viewBox="0 0 110.93668 68.16472"><defs><style>.cls-1{fill:#fff;}.cls-2{fill:#32ac65;}</style></defs><g id="_Слой_3"><g><g><path class="cls-2" d="m54.68438,6.56001c-.23755-.2579-.43099-.5401-.72092-.76913-.86794-.68566-1.772-1.35146-2.66554-2.02294-.27305-.20519-.41018-.4313-.41081-.71246-.00215-.96642-.03194-1.93281-.051-2.89922-.00096-.04875-.00012-.0975.04116-.15626.43142.8366,1.56562,1.27767,2.36795,1.90013.47753.37047.94366.74804,1.38921,1.13529.11575.10061.18836.24921.19017.37633.0149,1.0457.00841,2.09154.00841,3.13733-.04954.00364-.09909.00728-.14863.01092Z"/><path class="cls-2" d="m50.85357,6.65719c.4519.91384,1.59212,1.35865,2.39527,1.98688.46641.36484.91915.73768,1.35923,1.11645.10243.08816.17997.21477.18134.32416.01334,1.06372.00802,2.12753.00802,3.19881-.13966-.00703-.17838-.00387-.18199-.00988-.45286-.75473-1.38688-1.2655-2.1592-1.85838-.43712-.33556-.90347-.65899-1.28067-1.02222-.19346-.18629-.30054-.44688-.30806-.67586-.03255-.99086-.01394-1.98245-.01394-3.05995Z"/><path class="cls-2" d="m59.34204,3.24695c0,1.1426.01949,2.21568-.01867,3.28787-.00657.18437-.21139.39109-.40509.54275-.86392.67639-1.77204,1.32829-2.63134,2.00714-.29284.23134-.48946.51569-.78541.83569-.01522-.20563-.03266-.35871-.03687-.51194-.02284-.83079-.02318-1.66211-.07232-2.49218-.02048-.34601.17123-.62752.48771-.86479.72257-.54173,1.46565-1.07283,2.23479-1.5858.51389-.34273.9753-.69892,1.22721-1.21873Z"/><path class="cls-2" d="m59.35247,10.10187c0,.96418-.0174,1.92856.00852,2.89244.01043.38796-.17294.69274-.56513.97739-.84674.61456-1.67838,1.23899-2.48288,1.87765-.30107.239-.50949.52882-.7854.82233-.01592-.06996-.03688-.12247-.03854-.17523-.0307-.97577-.09378-1.95202-.06438-2.92705.00766-.25395.22808-.54701.48451-.74776.70423-.55132,1.46582-1.07198,2.23146-1.58748.50144-.33763.95704-.68771,1.21185-1.13228Z"/><g><polygon class="cls-1" points="52.51178 15.00494 51.38255 16.17779 50.25333 15.00494 51.38256 13.8321 52.51178 15.00494"/><g><path class="cls-1" d="m48.96649,41.88087V11.30543h.00006c0-.00049-.00006-.00092-.00006-.0014v-.12939c0-.01385-.00671-.02533-.0072-.039-.07684-2.91675-2.10419-5.25507-4.60004-5.25507h-9.26575c-2.49573,0-4.52301,2.33807-4.60004,5.25464-.00049.01385-.00732.02545-.00732.03943v16.61304H4.6073c-2.54456,0-4.6073,2.42877-4.6073,5.42487h35.92328v-8.74652h7.60602v17.77081h-7.60602v-7.23199h-5.43713v.00745H9.16443c-2.54456,0-4.6073,2.42877-4.6073,5.4248v.00006h13.04327v-.00006h12.88574v27.29028h7.73456c2.33295,0,4.22424-2.42877,4.22424-5.4248h-6.52167v-14.64087h7.92816c2.82501,0,5.11511-2.42877,5.11511-5.4248v-.00006h-.00006v-.35596Zm-13.04321-22.83972v-7.73572h7.60602v7.73572h-7.60602Z"/><path class="cls-1" d="m21.9801,42.23689h-8.43597c-2.54456,0-4.6073,2.42877-4.6073,5.4248h14.38837v20.06567h5.43713v-25.49048h-6.78223Z"/></g></g></g><g><path class="cls-1" d="m50.50886,26.99933h5.62233v1.98392h-1.85341v8.58978h-1.96393v-8.58978h-1.805v-1.98392Z"/><path class="cls-1" d="m57.2584,26.73337h1.87416v3.80969c.36872-.33065.73989-.57864,1.11337-.74397s.75142-.24799,1.13412-.24799c.74695,0,1.37619.2684,1.88799.80507.43788.46493.6569,1.1478.6569,2.04861v5.16824h-1.86018v-3.42872c0-.9057-.0415-1.51899-.12449-1.84015-.08299-.32102-.22478-.56067-.42535-.71881s-.4484-.23721-.74335-.23721c-.3827,0-.71122.13183-.98557.39535-.27434.26366-.4644.62306-.57045,1.07822-.05533.23491-.08299.77157-.08299,1.61013v3.1412h-1.87416v-10.83966Z"/><path class="cls-1" d="m73.28867,34.23056h-6.06497c.08761.55593.32161.998.702,1.3262.38025.32835.86554.49238,1.45573.49238.70531,0,1.31149-.25633,1.81868-.76913l1.59059.77631c-.39653.58468-.8713,1.01712-1.4246,1.29745-.55316.28034-1.2102.4205-1.97084.4205-1.18037,0-2.14159-.38686-2.88379-1.16088-.74234-.77387-1.11337-1.74311-1.11337-2.90759,0-1.19322.36988-2.18389,1.10991-2.97228.73989-.78825,1.66768-1.18244,2.7835-1.18244,1.18484,0,2.14836.3942,2.8907,1.18244.7422.78839,1.11337,1.82937,1.11337,3.12323l-.00692.37378Zm-1.88799-1.54544c-.12464-.43603-.3706-.79069-.73773-1.06384s-.79321-.40972-1.27806-.40972c-.5265,0-.9883.15339-1.38541.46004-.24942.19178-.48025.52962-.69278,1.01352h4.09399Z"/><path class="cls-1" d="m51.50465,42.1622h2.05398c1.11092,0,1.91205.10667,2.40311.31987.49105.21334.87822.55837,1.16179,1.03509.28357.47686.42535,1.04831.42535,1.71436,0,.73807-.18573,1.35136-.55676,1.84015-.37117.48879-.87476.82908-1.51106,1.02071-.37333.11027-1.05343.16533-2.04.16533v4.47819h-1.9364v-10.5737Zm1.9364,4.13316h.6154c.48414,0,.82058-.03608,1.00977-.10811.1889-.07217.3376-.19106.44595-.35696s.16253-.36659.16253-.60222c0-.40872-.15216-.70688-.45647-.89434-.22118-.13945-.63168-.20917-1.23095-.20917h-.54624v2.17081Z"/><path class="cls-1" d="m66.77414,49.39343h-6.06497c.08761.55593.32161.998.702,1.3262.38025.32835.86554.49238,1.45573.49238.70531,0,1.31149-.25633,1.81868-.76913l1.59059.77631c-.39653.58468-.8713,1.01712-1.4246,1.29745-.55316.28034-1.2102.4205-1.97084.4205-1.18037,0-2.14159-.38686-2.88379-1.16088-.74234-.77387-1.11337-1.74311-1.11337-2.90759,0-1.19322.36988-2.18389,1.10991-2.97228.73989-.78825,1.66768-1.18244,2.7835-1.18244,1.18484,0,2.14836.3942,2.8907,1.18244.7422.78839,1.11337,1.82937,1.11337,3.12323l-.00692.37378Zm-1.88799-1.54544c-.12464-.43603-.3706-.79069-.73773-1.06384s-.79321-.40972-1.27806-.40972c-.5265,0-.9883.15339-1.38541.46004-.24942.19178-.48025.52962-.69278,1.01352h4.09399Z"/><path class="cls-1" d="m73.85551,44.91524h1.88799v7.82065h-1.88799v-.82663c-.36843.36429-.73802.62666-1.10862.7871-.37074.16044-.77246.2408-1.2053.2408-.97173,0-1.81206-.39175-2.52126-1.17525s-1.06366-1.75749-1.06366-2.92196c0-1.2076.34307-2.19711,1.02922-2.96869.68615-.77143,1.51956-1.15728,2.50051-1.15728.45114,0,.87476.0887,1.27072.26596.3961.1774.76223.44336,1.09839.79788v-.86257Zm-1.98467,1.61013c-.58356,0-1.06827.21449-1.45428.64334-.38587.42899-.57895.97888-.57895,1.64967,0,.67568.19639,1.23161.58932,1.66764.39279.43617.87635.65412,1.45083.65412.59278,0,1.08441-.21435,1.47489-.64334.39048-.42884.58586-.99066.58586-1.68561,0-.68043-.19538-1.23147-.58586-1.65326-.39048-.42165-.88442-.63255-1.48181-.63255Z"/><path class="cls-1" d="m85.01718,46.49662l-1.57172.89851c-.29538-.32102-.5873-.54385-.87577-.66849-.28861-.1245-.62664-.18689-1.01438-.18689-.70632,0-1.27749.21895-1.71364.6567s-.65431.99886-.65431,1.68288c0,.66519.20994,1.20832.6301,1.62925.42002.42108.97159.63155,1.65471.63155.84479,0,1.50255-.29946,1.97329-.89851l1.48872,1.05953c-.8069,1.09072-1.94563,1.63601-3.41619,1.63601-1.32331,0-2.35945-.40728-3.10856-1.22198-.74926-.81456-1.12375-1.76827-1.12375-2.86086,0-.75705.18198-1.4543.54624-2.09174.36411-.6373.87246-1.13802,1.52489-1.50231.65229-.36415,1.38195-.5463,2.1887-.5463.74695,0,1.41769.15454,2.01248.46363s1.0811.74886,1.45918,1.31902Z"/><path class="cls-1" d="m94.25628,49.39343h-6.06497c.08761.55593.32161.998.702,1.3262.38025.32835.86554.49238,1.45573.49238.70531,0,1.31149-.25633,1.81868-.76913l1.59059.77631c-.39653.58468-.8713,1.01712-1.4246,1.29745-.55316.28034-1.2102.4205-1.97084.4205-1.18037,0-2.14159-.38686-2.88379-1.16088-.74234-.77387-1.11337-1.74311-1.11337-2.90759,0-1.19322.36988-2.18389,1.10991-2.97228.73989-.78825,1.66768-1.18244,2.7835-1.18244,1.18484,0,2.14836.3942,2.8907,1.18244.7422.78839,1.11337,1.82937,1.11337,3.12323l-.00692.37378Zm-1.88799-1.54544c-.12464-.43603-.3706-.79069-.73773-1.06384s-.79321-.40972-1.27806-.40972c-.5265,0-.9883.15339-1.38541.46004-.24942.19178-.48025.52962-.69278,1.01352h4.09399Z"/><path class="cls-1" d="m60.86133,59.18334l-1.35414,1.34187c-.9213-1.01208-1.95773-1.51813-3.10929-1.51813-.97202,0-1.79073.34532-2.45642,1.03609-.66554.69078-.99839,1.54214-.99839,2.55436,0,.70515.1474,1.33109.44221,1.87796s.71165.97614,1.25054,1.28796c.53903.31182,1.13787.46766,1.79664.46766.5618,0,1.07548-.10912,1.54074-.32735.46512-.21823.97649-.61516,1.53397-1.19078l1.31265,1.42382c-.75142.76237-1.46149,1.29084-2.12992,1.5857-.66857.29471-1.43152.44221-2.28899.44221-1.58137,0-2.87586-.52114-3.88318-1.56341s-1.51091-2.37797-1.51091-4.00737c0-1.05421.22924-1.9911.68802-2.81055.45863-.81944,1.11568-1.4783,1.97099-1.97673.85502-.49828,1.77603-.74756,2.76275-.74756.83903,0,1.64693.18416,2.42386.55262.77678.36832,1.44636.89233,2.00888,1.57161Z"/><path class="cls-1" d="m65.88209,59.87684c.70992,0,1.3772.18459,2.00197.55348.62477.36904,1.11222.86976,1.46264,1.50231.35028.63255.52563,1.31542.52563,2.04861,0,.73807-.17636,1.42813-.52909,2.07017-.35258.64218-.83326,1.1442-1.44189,1.50591-.60849.36171-1.27936.5427-2.01234.5427-1.07879,0-1.9998-.39894-2.76275-1.19682-.76309-.79788-1.14449-1.76698-1.14449-2.90759,0-1.22198.43097-2.24024,1.29319-3.05494.75603-.70918,1.62503-1.06384,2.60714-1.06384Zm.03112,1.84734c-.58658,0-1.0749.21205-1.46509.63615-.39034.4241-.58543.9668-.58543,1.6281,0,.68057.19279,1.23161.57852,1.65326.38544.4218.8739.63255,1.46509.63255.59105,0,1.08282-.2132,1.47547-.63974.3925-.4264.58875-.97514.58875-1.64608,0-.67079-.19279-1.21594-.57837-1.63529-.38572-.41921-.87865-.62896-1.47892-.62896Z"/><path class="cls-1" d="m76.96754,60.07811h1.88799v7.82065h-1.88799v-.82663c-.36843.36429-.73802.62666-1.10862.7871-.37074.16044-.77246.2408-1.2053.2408-.97173,0-1.81206-.39175-2.52126-1.17525s-1.06366-1.75749-1.06366-2.92196c0-1.2076.34307-2.19711,1.02922-2.96869.68615-.77143,1.51956-1.15728,2.50051-1.15728.45114,0,.87476.0887,1.27072.26596.3961.1774.76223.44336,1.09839.79788v-.86257Zm-1.98467,1.61013c-.58356,0-1.06827.21449-1.45428.64334-.38587.42899-.57895.97888-.57895,1.64967,0,.67568.19639,1.23161.58932,1.66764.39279.43617.87635.65412,1.45083.65412.59278,0,1.08441-.21435,1.47489-.64334.39048-.42884.58586-.99066.58586-1.68561,0-.68043-.19538-1.23147-.58586-1.65326-.39048-.42165-.88442-.63255-1.48181-.63255Z"/><path class="cls-1" d="m80.55664,57.05911h1.88799v10.83966h-1.88799v-10.83966Z"/><path class="cls-1" d="m84.89629,56.85784c.33097,0,.61483.12464.85156.37378.23674.24928.35518.55118.35518.9057,0,.34992-.11729.64822-.35172.89492-.23443.24684-.51483.37019-.84119.37019-.33558,0-.62189-.12579-.85862-.37738s-.35503-.55708-.35503-.91648c0-.34503.11714-.63974.35158-.88414s.51713-.36659.84825-.36659Zm-.94407,3.22027h1.88799v7.82065h-1.88799v-7.82065Z"/><path class="cls-1" d="m87.78354,57.19568h1.88799v2.88243h1.12029v1.6892h-1.12029v6.13145h-1.88799v-6.13145h-.96813v-1.6892h.96813v-2.88243Z"/><path class="cls-1" d="m92.53803,56.85784c.33097,0,.61483.12464.85156.37378.23674.24928.35518.55118.35518.9057,0,.34992-.11729.64822-.35172.89492-.23443.24684-.51483.37019-.84119.37019-.33558,0-.62189-.12579-.85862-.37738s-.35503-.55708-.35503-.91648c0-.34503.11714-.63974.35158-.88414s.51713-.36659.84825-.36659Zm-.94407,3.22027h1.88799v7.82065h-1.88799v-7.82065Z"/><path class="cls-1" d="m98.73095,59.87684c.70992,0,1.3772.18459,2.00197.55348.62477.36904,1.11222.86976,1.46264,1.50231.35028.63255.52563,1.31542.52563,2.04861,0,.73807-.17636,1.42813-.52909,2.07017-.35258.64218-.83326,1.1442-1.44189,1.50591-.60849.36171-1.27936.5427-2.01234.5427-1.07879,0-1.9998-.39894-2.76275-1.19682-.76309-.79788-1.14449-1.76698-1.14449-2.90759,0-1.22198.43097-2.24024,1.29319-3.05494.75603-.70918,1.62503-1.06384,2.60714-1.06384Zm.03112,1.84734c-.58658,0-1.0749.21205-1.46509.63615-.39034.4241-.58543.9668-.58543,1.6281,0,.68057.19279,1.23161.57852,1.65326.38544.4218.8739.63255,1.46509.63255.59105,0,1.08282-.2132,1.47547-.63974.3925-.4264.58875-.97514.58875-1.64608,0-.67079-.19279-1.21594-.57837-1.63529-.38572-.41921-.87865-.62896-1.47892-.62896Z"/><path class="cls-1" d="m104.26323,60.07811h1.88799v.80147c.42809-.37508.81597-.636,1.16351-.78278.34754-.14664.7033-.21996,1.06698-.21996.7458,0,1.37878.27085,1.89909.81226.43731.46004.65589,1.14061.65589,2.04142v5.16824h-1.8671v-3.42484c0-.9333-.04034-1.55306-.12089-1.85942-.0804-.30636-.22074-.53968-.42088-.70012-.19999-.16029-.44711-.24051-.74148-.24051-.38183,0-.70949.13284-.98312.39851-.27377.26567-.46339.63313-.56929,1.10208-.05519.24425-.08271.77315-.08271,1.5867v3.13761h-1.88799v-7.82065Z"/></g></g></g></svg>