<svg width="113" height="75" viewBox="0 0 113 75" fill="none" xmlns="http://www.w3.org/2000/svg">
<g filter="url(#filter0_d_205_63)">
<path d="M50.9683 18.5471L50.0013 19.5279L49.0342 18.5471L50.0013 17.5664L50.9683 18.5471Z" fill="#0045A5"/>
<path d="M47.9323 15.4531H43.2762V41.3184H47.9323V15.4531Z" fill="#0045A5"/>
<path d="M36.7631 15.4531H32.1071V33.7722H36.7631V15.4531Z" fill="#0045A5"/>
<path d="M36.7629 29.2373H10.1697V33.7737H36.7629V29.2373Z" fill="#0045A5"/>
<path d="M36.7093 35.2773H14.0292V39.8137H36.7093V35.2773Z" fill="#0045A5"/>
<path d="M36.7631 35.2715H32.1071V62.6346H36.7631V35.2715Z" fill="#0045A5"/>
<path d="M30.6304 41.3184H18.0569V45.8548H30.6304V41.3184Z" fill="#0045A5"/>
<path d="M30.6305 41.3184H25.9745V62.634H30.6305V41.3184Z" fill="#0045A5"/>
<path d="M47.9326 21.9229H32.1071V26.4591H47.9326V21.9229Z" fill="#0045A5"/>
<path d="M52.8293 11.4856C52.6259 11.2699 52.4603 11.0339 52.212 10.8424C51.4686 10.2691 50.6945 9.7123 49.9293 9.1508C49.6954 8.97922 49.578 8.79015 49.5775 8.55504C49.5756 7.7469 49.5501 6.93879 49.5338 6.13067C49.5329 6.0899 49.5337 6.04913 49.5691 6C49.9385 6.69958 50.9098 7.06841 51.5969 7.58892C52.0058 7.89871 52.4049 8.21444 52.7865 8.53827C52.8857 8.6224 52.9478 8.74666 52.9494 8.85296C52.9621 9.72739 52.9566 10.6019 52.9566 11.4764C52.9141 11.4795 52.8717 11.4825 52.8293 11.4856Z" fill="#00B665"/>
<path d="M49.5486 11.5664C49.9356 12.3306 50.912 12.7025 51.5998 13.2279C51.9992 13.5329 52.387 13.8447 52.7639 14.1615C52.8515 14.2352 52.9179 14.341 52.9191 14.4325C52.9305 15.322 52.926 16.2116 52.926 17.1074C52.8063 17.1015 52.7732 17.1042 52.7702 17.0992C52.3823 16.468 51.5825 16.0409 50.921 15.5451C50.5468 15.2646 50.1474 14.9941 49.8244 14.6903C49.6588 14.5346 49.567 14.3167 49.5606 14.1252C49.5327 13.2966 49.5486 12.4674 49.5486 11.5664Z" fill="#00B665"/>
<path d="M56.8178 8.71484C56.8178 9.67029 56.8345 10.5676 56.8017 11.4642C56.7962 11.6184 56.6208 11.7912 56.4549 11.9181C55.7151 12.4837 54.9374 13.0288 54.2016 13.5965C53.9507 13.7899 53.7824 14.0277 53.529 14.2953C53.516 14.1233 53.5009 13.9953 53.4974 13.8672C53.4778 13.1725 53.4776 12.4773 53.4355 11.7832C53.4179 11.4938 53.5821 11.2584 53.8531 11.06C54.4718 10.607 55.1083 10.1629 55.7668 9.73396C56.2069 9.44737 56.6021 9.14951 56.8178 8.71484Z" fill="#00B665"/>
<path d="M56.8263 14.4473C56.8263 15.2535 56.8114 16.06 56.8335 16.866C56.8425 17.1904 56.6854 17.4452 56.3496 17.6833C55.6246 18.1972 54.9123 18.7194 54.2235 19.2534C53.9656 19.4533 53.787 19.6956 53.5508 19.941C53.5372 19.8825 53.5193 19.8386 53.5178 19.7945C53.4915 18.9786 53.4375 18.1622 53.4627 17.3469C53.4693 17.1345 53.658 16.8894 53.8776 16.7216C54.4807 16.2605 55.1328 15.8252 55.7884 15.3941C56.2179 15.1118 56.6081 14.819 56.8263 14.4473Z" fill="#00B665"/>
<path d="M32.1071 15.4533C32.1071 12.948 33.8735 10.917 36.0525 10.917H43.2767V15.4533H32.1071V15.4533V15.4533Z" fill="#0045A5"/>
<path d="M47.9328 15.4533C47.9328 12.948 46.1664 10.917 43.9873 10.917H36.7632V15.4533H47.9328V15.4533V15.4533Z" fill="#0045A5"/>
<path d="M6 33.7737C6 31.2684 7.76646 29.2373 9.94548 29.2373H17.1696V33.7737H6Z" fill="#0045A5"/>
<path d="M9.90259 39.8137C9.90259 37.3084 11.669 35.2773 13.8481 35.2773H21.0722V39.8137H9.90259Z" fill="#0045A5"/>
<path d="M13.653 45.8548C13.653 43.3494 15.4194 41.3184 17.5985 41.3184H24.8225V45.8548H13.653Z" fill="#0045A5"/>
<path d="M47.9326 41.3184C47.9326 43.8237 45.9715 45.8548 43.5522 45.8548H35.5319V41.3184H47.9326Z" fill="#0045A5"/>
<path d="M42.348 58.0986C42.348 60.604 40.7283 62.6349 38.7305 62.6349H32.1071V58.0986H42.348Z" fill="#0045A5"/>
<path d="M36.7631 17.5665V14.4473H32.9502C32.4845 14.4473 32.1071 14.8489 32.1071 15.3443V17.5665H36.7631Z" fill="#0045A5"/>
<path d="M43.2762 17.5665V14.4473H47.0892C47.5549 14.4473 47.9323 14.8489 47.9323 15.3443V17.5665H43.2762Z" fill="#0045A5"/>
<path d="M43.2762 38.7998V41.9191H47.0892C47.5549 41.9191 47.9323 41.5175 47.9323 41.022V38.7998H43.2762Z" fill="#0045A5"/>
<path d="M49.0543 28.7148H53.869V30.3739H52.2818V37.5567H50.6V30.3739H49.0543V28.7148Z" fill="#00B665"/>
<path d="M54.8345 28.4922H56.4394V31.6779C56.7551 31.4014 57.073 31.1941 57.3928 31.0559C57.7126 30.9177 58.0364 30.8485 58.364 30.8485C59.0037 30.8485 59.5426 31.0729 59.9808 31.5217C60.3558 31.9105 60.5433 32.4815 60.5433 33.2348V37.5565H58.9504V34.6893C58.9504 33.932 58.9149 33.4192 58.8437 33.1506C58.7727 32.8822 58.6513 32.6818 58.4795 32.5495C58.3078 32.4173 58.0955 32.3512 57.8429 32.3512C57.5153 32.3512 57.2339 32.4615 56.999 32.6818C56.764 32.9023 56.6013 33.2028 56.5104 33.5834C56.463 33.7799 56.4394 34.2286 56.4394 34.9298V37.5565H54.8345V28.4922Z" fill="#00B665"/>
<path d="M68.7611 34.6249H63.5674C63.6425 35.0899 63.8429 35.4594 64.1686 35.734C64.4942 36.0085 64.9098 36.1457 65.4152 36.1457C66.0192 36.1457 66.5383 35.9313 66.9726 35.5025L68.3347 36.1516C67.9952 36.6406 67.5886 37.0023 67.1148 37.2366C66.6411 37.471 66.0784 37.5882 65.4271 37.5882C64.4163 37.5882 63.5931 37.2647 62.9575 36.6176C62.3217 35.9704 62.0041 35.1599 62.0041 34.1862C62.0041 33.1883 62.3209 32.36 62.9545 31.7007C63.5882 31.0416 64.3827 30.7119 65.3383 30.7119C66.3529 30.7119 67.1779 31.0416 67.8136 31.7007C68.4493 32.36 68.7671 33.2304 68.7671 34.3124L68.7611 34.6249ZM67.1443 33.3326C67.0377 32.968 66.8271 32.6714 66.5126 32.4431C66.1982 32.2146 65.8333 32.1004 65.4181 32.1004C64.9673 32.1004 64.5718 32.2286 64.2318 32.4851C64.0181 32.6455 63.8205 32.928 63.6384 33.3326H67.1443Z" fill="#00B665"/>
<path d="M49.9904 41.4893H51.7494C52.7007 41.4893 53.3868 41.5785 53.8073 41.7568C54.2278 41.9351 54.5593 42.2237 54.8021 42.6223C55.045 43.021 55.1664 43.4989 55.1664 44.0559C55.1664 44.673 55.0073 45.1859 54.6896 45.5947C54.3718 46.0034 53.9404 46.2879 53.3956 46.4481C53.0759 46.5403 52.4934 46.5864 51.6487 46.5864V50.3311H49.9904V41.4893ZM51.6487 44.9455H52.1757C52.5902 44.9455 52.8783 44.9153 53.0403 44.8551C53.2022 44.7948 53.3294 44.6953 53.4223 44.5566C53.515 44.4178 53.5614 44.2501 53.5614 44.053C53.5614 43.7112 53.4311 43.4618 53.1706 43.3051C52.9812 43.1885 52.6295 43.1302 52.1164 43.1302H51.6487V44.9455Z" fill="#00B665"/>
<path d="M63.0665 47.5361H57.8729C57.9478 48.0009 58.1482 48.3706 58.4739 48.6451C58.7995 48.9196 59.2152 49.0569 59.7206 49.0569C60.3246 49.0569 60.8436 48.8424 61.278 48.4137L62.6401 49.0628C62.3005 49.5517 61.894 49.9134 61.4202 50.1478C60.9465 50.3822 60.3838 50.4994 59.7324 50.4994C58.7216 50.4994 57.8985 50.1758 57.2628 49.5287C56.6272 48.8816 56.3094 48.0711 56.3094 47.0973C56.3094 46.0995 56.6261 45.2711 57.2599 44.6118C57.8936 43.9527 58.6881 43.623 59.6436 43.623C60.6582 43.623 61.4834 43.9527 62.119 44.6118C62.7546 45.2711 63.0725 46.1416 63.0725 47.2235L63.0665 47.5361ZM61.4498 46.2437C61.343 45.8791 61.1324 45.5826 60.818 45.3542C60.5036 45.1257 60.1387 45.0115 59.7235 45.0115C59.2727 45.0115 58.8772 45.1398 58.5371 45.3962C58.3236 45.5566 58.1258 45.8391 57.9439 46.2437H61.4498Z" fill="#00B665"/>
<path d="M69.2462 43.5599H70.863V50.0996H69.2462V49.4084C68.9307 49.7131 68.6142 49.9325 68.2968 50.0666C67.9794 50.2008 67.6354 50.2679 67.2648 50.2679C66.4326 50.2679 65.7129 49.9403 65.1057 49.2852C64.4983 48.6301 64.1948 47.8156 64.1948 46.8418C64.1948 45.832 64.4886 45.0046 65.0761 44.3593C65.6638 43.7142 66.3774 43.3916 67.2175 43.3916C67.6038 43.3916 67.9666 43.4658 68.3057 43.614C68.6448 43.7624 68.9584 43.9847 69.2462 44.2813V43.5599ZM67.5467 44.9064C67.047 44.9064 66.6319 45.0857 66.3014 45.4443C65.9708 45.803 65.8056 46.2628 65.8056 46.8238C65.8056 47.3888 65.9737 47.8536 66.3102 48.2183C66.6466 48.583 67.0606 48.7652 67.5526 48.7652C68.0602 48.7652 68.4812 48.586 68.8156 48.2273C69.15 47.8687 69.3174 47.3989 69.3174 46.8178C69.3174 46.2488 69.15 45.788 68.8156 45.4353C68.4812 45.0826 68.0583 44.9064 67.5467 44.9064Z" fill="#00B665"/>
<path d="M78.8047 44.8822L77.4586 45.6336C77.2057 45.3652 76.9558 45.1789 76.7087 45.0746C76.4616 44.9705 76.1721 44.9183 75.8401 44.9183C75.2352 44.9183 74.746 45.1015 74.3725 45.4675C73.999 45.8336 73.8123 46.3027 73.8123 46.8747C73.8123 47.431 73.9921 47.8852 74.3518 48.2371C74.7115 48.5893 75.1838 48.7652 75.7688 48.7652C76.4923 48.7652 77.0556 48.5148 77.4586 48.0139L78.7335 48.8999C78.0425 49.8119 77.0675 50.2679 75.8081 50.2679C74.6749 50.2679 73.7876 49.9274 73.146 49.2462C72.5044 48.5649 72.1837 47.7675 72.1837 46.8538C72.1837 46.2207 72.3396 45.6377 72.6515 45.1047C72.9633 44.5718 73.3986 44.1531 73.9573 43.8484C74.5159 43.5439 75.1407 43.3916 75.8316 43.3916C76.4713 43.3916 77.0457 43.5209 77.5551 43.7792C78.0644 44.0378 78.4808 44.4055 78.8047 44.8822Z" fill="#00B665"/>
<path d="M86.6008 47.5361H81.407C81.4821 48.0009 81.6825 48.3706 82.0082 48.6451C82.3338 48.9196 82.7494 49.0569 83.2548 49.0569C83.8589 49.0569 84.3779 48.8424 84.8122 48.4137L86.1744 49.0628C85.8348 49.5517 85.4282 49.9134 84.9543 50.1478C84.4806 50.3822 83.918 50.4994 83.2667 50.4994C82.2558 50.4994 81.4327 50.1758 80.7971 49.5287C80.1614 48.8816 79.8437 48.0711 79.8437 47.0973C79.8437 46.0995 80.1604 45.2711 80.7942 44.6118C81.4277 43.9527 82.2222 43.623 83.1778 43.623C84.1924 43.623 85.0175 43.9527 85.6533 44.6118C86.2889 45.2711 86.6068 46.1416 86.6068 47.2235L86.6008 47.5361ZM84.984 46.2437C84.8773 45.8791 84.6666 45.5826 84.3523 45.3542C84.0379 45.1257 83.673 45.0115 83.2578 45.0115C82.8069 45.0115 82.4114 45.1398 82.0714 45.3962C81.8578 45.5566 81.6601 45.8391 81.4781 46.2437H84.984Z" fill="#00B665"/>
<path d="M58.1187 55.4892L56.959 56.6113C56.1701 55.765 55.2824 55.3419 54.2964 55.3419C53.464 55.3419 52.7629 55.6306 52.1928 56.2083C51.6229 56.7859 51.3379 57.4978 51.3379 58.3442C51.3379 58.9339 51.4641 59.4573 51.7165 59.9146C51.969 60.3719 52.3259 60.7309 52.7874 60.9916C53.2491 61.2524 53.7618 61.3827 54.326 61.3827C54.8071 61.3827 55.2469 61.2915 55.6454 61.1089C56.0437 60.9265 56.4816 60.5946 56.959 60.1133L58.0831 61.3038C57.4396 61.9413 56.8315 62.3833 56.2591 62.6299C55.6866 62.8763 55.0333 62.9996 54.2989 62.9996C52.9448 62.9996 51.8362 62.5639 50.9736 61.6923C50.111 60.8208 49.6797 59.7037 49.6797 58.3413C49.6797 57.4597 49.876 56.6763 50.2689 55.991C50.6616 55.3058 51.2243 54.7548 51.9567 54.3381C52.6889 53.9214 53.4776 53.7129 54.3227 53.7129C55.0411 53.7129 55.733 53.8669 56.3984 54.175C57.0635 54.483 57.6369 54.9213 58.1187 55.4892Z" fill="#00B665"/>
<path d="M62.4182 56.0693C63.0262 56.0693 63.5976 56.2237 64.1326 56.5322C64.6677 56.8408 65.0851 57.2595 65.3852 57.7884C65.6852 58.3174 65.8353 58.8884 65.8353 59.5015C65.8353 60.1187 65.6843 60.6957 65.3822 61.2326C65.0802 61.7697 64.6687 62.1894 64.1475 62.4919C63.6264 62.7944 63.0519 62.9456 62.4242 62.9456C61.5003 62.9456 60.7116 62.612 60.0582 61.945C59.4047 61.2777 59.0782 60.4674 59.0782 59.5136C59.0782 58.4917 59.4472 57.6402 60.1856 56.959C60.833 56.3659 61.5772 56.0693 62.4182 56.0693ZM62.4449 57.6141C61.9425 57.6141 61.5244 57.7914 61.1902 58.1461C60.856 58.5007 60.689 58.9546 60.689 59.5076C60.689 60.0766 60.854 60.5374 61.1843 60.89C61.5144 61.2427 61.9327 61.4189 62.4389 61.4189C62.9451 61.4189 63.3662 61.2407 63.7025 60.8839C64.0386 60.5274 64.2066 60.0685 64.2066 59.5076C64.2066 58.9466 64.0416 58.4907 63.7113 58.14C63.381 57.7896 62.9589 57.6141 62.4449 57.6141Z" fill="#00B665"/>
<path d="M71.9114 56.2376H73.5282V62.7774H71.9114V62.0862C71.5959 62.3908 71.2794 62.6102 70.962 62.7444C70.6446 62.8786 70.3005 62.9456 69.9298 62.9456C69.0977 62.9456 68.3781 62.6181 67.7707 61.9629C67.1635 61.3078 66.8599 60.4933 66.8599 59.5195C66.8599 58.5097 67.1538 57.6823 67.7413 57.037C68.3288 56.392 69.0426 56.0693 69.8826 56.0693C70.269 56.0693 70.6317 56.1436 70.9708 56.2918C71.31 56.4401 71.6236 56.6624 71.9114 56.959V56.2376ZM70.2118 57.5841C69.7121 57.5841 69.2971 57.7635 68.9664 58.122C68.636 58.4808 68.4706 58.9405 68.4706 59.5015C68.4706 60.0666 68.6389 60.5314 68.9754 60.896C69.3117 61.2608 69.7258 61.443 70.2178 61.443C70.7253 61.443 71.1463 61.2637 71.4808 60.905C71.8151 60.5464 71.9824 60.0767 71.9824 59.4955C71.9824 58.9265 71.8151 58.4657 71.4808 58.1131C71.1463 57.7604 70.7234 57.5841 70.2118 57.5841Z" fill="#00B665"/>
<path d="M74.9844 53.7129H76.6012V62.7772H74.9844V53.7129Z" fill="#00B665"/>
<path d="M78.7009 53.5459C78.9843 53.5459 79.2274 53.6502 79.4302 53.8585C79.6329 54.067 79.7343 54.3193 79.7343 54.6159C79.7343 54.9085 79.6339 55.1579 79.4331 55.3642C79.2323 55.5705 78.9923 55.6737 78.7128 55.6737C78.4254 55.6737 78.1802 55.5686 77.9775 55.3582C77.7747 55.1478 77.6734 54.8924 77.6734 54.5918C77.6734 54.3033 77.7737 54.0569 77.9745 53.8524C78.1753 53.6481 78.4174 53.5459 78.7009 53.5459ZM77.8925 56.2387H79.5093V62.7785H77.8925V56.2387Z" fill="#00B665"/>
<path d="M81.1735 53.8291H82.7902V56.2394H83.7496V57.652H82.7902V62.7792H81.1735V57.652H80.3444V56.2394H81.1735V53.8291Z" fill="#00B665"/>
<path d="M85.245 53.5459C85.5284 53.5459 85.7715 53.6502 85.9743 53.8585C86.1769 54.067 86.2784 54.3193 86.2784 54.6159C86.2784 54.9085 86.1779 55.1579 85.9772 55.3642C85.7764 55.5705 85.5363 55.6737 85.2568 55.6737C84.9695 55.6737 84.7243 55.5686 84.5216 55.3582C84.3188 55.1478 84.2175 54.8924 84.2175 54.5918C84.2175 54.3033 84.3178 54.0569 84.5186 53.8524C84.7193 53.6481 84.9614 53.5459 85.245 53.5459ZM84.4366 56.2387H86.0534V62.7785H84.4366V56.2387Z" fill="#00B665"/>
<path d="M90.5484 56.0693C91.1562 56.0693 91.7277 56.2237 92.2627 56.5322C92.7978 56.8408 93.2151 57.2595 93.5152 57.7884C93.8152 58.3174 93.9654 58.8884 93.9654 59.5015C93.9654 60.1187 93.8144 60.6957 93.5123 61.2326C93.2103 61.7697 92.7987 62.1894 92.2775 62.4919C91.7564 62.7944 91.182 62.9456 90.5543 62.9456C89.6304 62.9456 88.8417 62.612 88.1884 61.945C87.5349 61.2777 87.2083 60.4674 87.2083 59.5136C87.2083 58.4917 87.5773 57.6402 88.3157 56.959C88.9632 56.3659 89.7074 56.0693 90.5484 56.0693ZM90.575 57.6141C90.0726 57.6141 89.6545 57.7914 89.3203 58.1461C88.9861 58.5007 88.819 58.9546 88.819 59.5076C88.819 60.0766 88.9841 60.5374 89.3144 60.89C89.6446 61.2427 90.0628 61.4189 90.5691 61.4189C91.0752 61.4189 91.4964 61.2407 91.8326 60.8839C92.1687 60.5274 92.3367 60.0685 92.3367 59.5076C92.3367 58.9466 92.1717 58.4907 91.8414 58.14C91.5112 57.7896 91.089 57.6141 90.575 57.6141Z" fill="#00B665"/>
<path d="M95.2859 56.2376H96.9027V56.9079C97.2693 56.5942 97.6015 56.376 97.8992 56.2532C98.1967 56.1306 98.5014 56.0693 98.8128 56.0693C99.4515 56.0693 99.9936 56.2958 100.439 56.7486C100.814 57.1333 101.001 57.7024 101.001 58.4557V62.7774H99.4019V59.9135C99.4019 59.1331 99.3674 58.6148 99.2984 58.3586C99.2295 58.1025 99.1094 57.9074 98.9379 57.7732C98.7667 57.6391 98.555 57.572 98.303 57.572C97.976 57.572 97.6954 57.6831 97.4611 57.9053C97.2266 58.1275 97.0642 58.4347 96.9735 58.8268C96.9263 59.0312 96.9027 59.4733 96.9027 60.1537V62.7774H95.2859V56.2376Z" fill="#00B665"/>
</g>
<defs>
<filter id="filter0_d_205_63" x="0" y="0" width="113.001" height="75" filterUnits="userSpaceOnUse" color-interpolation-filters="sRGB">
<feFlood flood-opacity="0" result="BackgroundImageFix"/>
<feColorMatrix in="SourceAlpha" type="matrix" values="0 0 0 0 0 0 0 0 0 0 0 0 0 0 0 0 0 0 127 0" result="hardAlpha"/>
<feOffset dx="3" dy="3"/>
<feGaussianBlur stdDeviation="4.5"/>
<feComposite in2="hardAlpha" operator="out"/>
<feColorMatrix type="matrix" values="0 0 0 0 0 0 0 0 0 0 0 0 0 0 0 0 0 0 0.4 0"/>
<feBlend mode="normal" in2="BackgroundImageFix" result="effect1_dropShadow_205_63"/>
<feBlend mode="normal" in="SourceGraphic" in2="effect1_dropShadow_205_63" result="shape"/>
</filter>
</defs>
</svg>
