<svg width="315" height="400" viewBox="0 0 315 400" fill="none" xmlns="http://www.w3.org/2000/svg">
<path opacity="0.18" d="M244.581 79.3983C241.046 76.2769 238.167 72.8613 233.852 70.0892C220.935 61.7905 207.48 53.7319 194.182 45.6048C190.118 43.1212 188.077 40.3846 188.068 36.9816C188.036 25.2847 187.593 13.588 187.309 1.8913C187.295 1.30129 187.307 0.711172 187.922 0C194.342 10.1257 211.222 15.4642 223.163 22.998C230.27 27.482 237.207 32.0519 243.838 36.7389C245.561 37.9566 246.641 39.7552 246.668 41.2938C246.89 53.9503 246.793 66.6085 246.793 79.2661C246.056 79.3102 245.319 79.3542 244.581 79.3983Z" fill="#0045A5" fill-opacity="0.3"/>
<path opacity="0.18" d="M187.568 80.5743C194.294 91.6348 211.263 97.0185 223.216 104.622C230.158 109.038 236.896 113.551 243.445 118.135C244.969 119.202 246.123 120.734 246.144 122.058C246.342 134.933 246.263 147.809 246.263 160.775C244.185 160.69 243.608 160.728 243.555 160.655C236.815 151.52 222.914 145.338 211.42 138.163C204.915 134.101 197.974 130.187 192.36 125.79C189.481 123.535 187.888 120.382 187.776 117.61C187.291 105.617 187.568 93.6156 187.568 80.5742L187.568 80.5743Z" fill="#0045A5" fill-opacity="0.3"/>
<path opacity="0.18" d="M313.899 39.2988C313.899 53.1281 314.189 66.1161 313.621 79.0931C313.524 81.3246 310.475 83.8267 307.593 85.6622C294.735 93.8488 281.22 101.739 268.431 109.955C264.073 112.755 261.147 116.197 256.742 120.07C256.516 117.581 256.256 115.728 256.194 113.874C255.854 103.818 255.849 93.7567 255.117 83.71C254.813 79.5221 257.666 76.1149 262.376 73.2431C273.129 66.6864 284.188 60.2583 295.635 54.0496C303.283 49.9014 310.15 45.5902 313.899 39.2988Z" fill="#0045A5" fill-opacity="0.3"/>
<path opacity="0.18" d="M314.055 122.268C314.055 133.937 313.796 145.61 314.182 157.276C314.337 161.972 311.608 165.66 305.771 169.106C293.169 176.544 280.792 184.102 268.819 191.831C264.339 194.724 261.237 198.232 257.13 201.784C256.894 200.938 256.582 200.302 256.557 199.664C256.1 187.853 255.161 176.037 255.599 164.236C255.713 161.163 258.993 157.616 262.809 155.186C273.29 148.513 284.625 142.211 296.019 135.972C303.482 131.886 310.263 127.648 314.055 122.268L314.055 122.268Z" fill="#0045A5" fill-opacity="0.3"/>
<path opacity="0.18" d="M57.2753 79.3983C53.74 76.2769 50.8609 72.8613 46.5462 70.0892C33.6289 61.7905 20.1741 53.7319 6.87591 45.6048C2.81221 43.1212 0.771345 40.3846 0.762025 36.9816C0.730055 25.2847 0.286666 13.588 0.00300495 1.8913C-0.0113139 1.30129 0.00115335 0.711172 0.615566 0C7.03619 10.1257 23.916 15.4642 35.8569 22.998C42.9638 27.482 49.901 32.0519 56.5319 36.7389C58.2546 37.9566 59.3352 39.7552 59.3621 41.2938C59.5838 53.9503 59.4873 66.6085 59.4873 79.2661C58.7499 79.3102 58.0126 79.3542 57.2753 79.3983Z" fill="#0045A5" fill-opacity="0.3"/>
<path opacity="0.18" d="M0.262614 80.5743C6.98807 91.6348 23.9576 97.0185 35.9106 104.622C42.8519 109.038 49.59 113.551 56.1394 118.135C57.6638 119.202 58.8178 120.734 58.8382 122.058C59.0367 134.933 58.9576 147.809 58.9576 160.775C56.8791 160.69 56.3028 160.728 56.2491 160.655C49.5093 151.52 35.6087 145.338 24.1145 138.163C17.6091 134.101 10.6685 130.187 5.05472 125.79C2.17559 123.535 0.581948 120.382 0.46999 117.61C-0.0144426 105.617 0.262552 93.6156 0.262552 80.5742L0.262614 80.5743Z" fill="#0045A5" fill-opacity="0.3"/>
<path opacity="0.18" d="M126.594 39.2988C126.594 53.1281 126.884 66.1161 126.316 79.0931C126.218 81.3246 123.17 83.8267 120.287 85.6622C107.429 93.8488 93.9143 101.739 81.1257 109.955C76.7675 112.755 73.8412 116.197 69.4366 120.07C69.2101 117.581 68.9506 115.728 68.8879 113.874C68.5479 103.818 68.5429 93.7567 67.8116 83.71C67.5069 79.5221 70.3599 76.1149 75.07 73.2431C85.8238 66.6864 96.8828 60.2583 108.33 54.0496C115.978 49.9014 122.845 45.5902 126.594 39.2988Z" fill="#0045A5" fill-opacity="0.3"/>
<path opacity="0.18" d="M126.749 122.268C126.749 133.937 126.49 145.61 126.876 157.276C127.031 161.972 124.302 165.66 118.465 169.106C105.863 176.544 93.4863 184.102 81.5132 191.831C77.0324 194.724 73.9306 198.232 69.8244 201.784C69.5874 200.938 69.2755 200.302 69.2508 199.664C68.7939 187.853 67.8551 176.037 68.2926 164.236C68.4066 161.163 71.6871 157.616 75.5033 155.186C85.984 148.513 97.3186 142.211 108.713 135.972C116.176 131.886 122.957 127.648 126.749 122.268L126.749 122.268Z" fill="#0045A5" fill-opacity="0.3"/>
<path opacity="0.18" d="M58.0625 239.816C54.5271 236.695 51.6481 233.279 47.3333 230.507C34.416 222.208 20.9612 214.15 7.66308 206.023C3.59938 203.539 1.55852 200.803 1.5492 197.4C1.51723 185.703 1.0739 174.006 0.790175 162.309C0.775857 161.719 0.788324 161.129 1.40274 160.418C7.82337 170.544 24.7032 175.882 36.644 183.416C43.751 187.9 50.6881 192.47 57.3191 197.157C59.0417 198.375 60.1224 200.173 60.1493 201.712C60.371 214.368 60.2745 227.026 60.2745 239.684C59.5371 239.728 58.7998 239.772 58.0625 239.816Z" fill="#0045A5" fill-opacity="0.3"/>
<path opacity="0.18" d="M1.04978 240.992C7.77524 252.053 24.7448 257.436 36.6978 265.04C43.6391 269.456 50.3772 273.969 56.9266 278.553C58.451 279.62 59.605 281.152 59.6254 282.476C59.8239 295.351 59.7447 308.227 59.7447 321.193C57.6662 321.108 57.09 321.146 57.0363 321.073C50.2965 311.938 36.3958 305.756 24.9017 298.581C18.3963 294.519 11.4557 290.605 5.8419 286.208C2.96276 283.953 1.36912 280.799 1.25716 278.028C0.772728 266.035 1.04972 254.034 1.04972 240.992L1.04978 240.992Z" fill="#0045A5" fill-opacity="0.3"/>
<path opacity="0.18" d="M127.381 199.717C127.381 213.546 127.671 226.534 127.103 239.511C127.005 241.743 123.957 244.245 121.074 246.08C108.217 254.267 94.7015 262.157 81.9128 270.373C77.5547 273.173 74.6284 276.615 70.2238 280.488C69.9973 277.999 69.7378 276.146 69.6751 274.292C69.3351 264.236 69.3301 254.175 68.5988 244.128C68.2941 239.94 71.1471 236.533 75.8572 233.661C86.611 227.104 97.6699 220.676 109.117 214.468C116.765 210.319 123.632 206.008 127.381 199.717Z" fill="#0045A5" fill-opacity="0.3"/>
<path opacity="0.18" d="M127.536 282.684C127.536 294.353 127.277 306.026 127.663 317.692C127.818 322.388 125.089 326.076 119.252 329.522C106.65 336.96 94.2734 344.518 82.3003 352.247C77.8196 355.14 74.7178 358.648 70.6116 362.2C70.3746 361.354 70.0626 360.718 70.0379 360.08C69.581 348.269 68.6422 336.453 69.0798 324.652C69.1938 321.579 72.4742 318.032 76.2904 315.602C86.7712 308.929 98.1058 302.627 109.5 296.388C116.963 292.302 123.744 288.064 127.536 282.684L127.536 282.684Z" fill="#0045A5" fill-opacity="0.3"/>
<path opacity="0.18" d="M61.2298 398.467C57.6945 395.345 54.8155 391.93 50.5007 389.158C37.5834 380.859 24.1286 372.8 10.8304 364.673C6.76674 362.19 4.72587 359.453 4.71655 356.05C4.68458 344.353 4.24126 332.656 3.95753 320.96C3.94321 320.37 3.95568 319.78 4.5701 319.068C10.9907 329.194 27.8706 334.533 39.8114 342.066C46.9183 346.55 53.8555 351.12 60.4865 355.807C62.2091 357.025 63.2897 358.824 63.3167 360.362C63.5383 373.019 63.4418 385.677 63.4418 398.334C62.7045 398.379 61.9672 398.423 61.2298 398.467Z" fill="#0045A5" fill-opacity="0.3"/>
<path opacity="0.18" d="M245.393 241.349C241.858 238.228 238.979 234.813 234.664 232.04C221.747 223.742 208.292 215.683 194.994 207.556C190.93 205.072 188.889 202.336 188.88 198.933C188.848 187.236 188.405 175.539 188.121 163.842C188.107 163.252 188.119 162.662 188.734 161.951C195.154 172.077 212.034 177.415 223.975 184.949C231.082 189.433 238.019 194.003 244.65 198.69C246.373 199.908 247.453 201.706 247.48 203.245C247.702 215.902 247.605 228.56 247.605 241.217C246.868 241.261 246.131 241.305 245.393 241.349Z" fill="#0045A5" fill-opacity="0.3"/>
<path opacity="0.18" d="M188.381 242.525C195.106 253.586 212.076 258.97 224.029 266.573C230.97 270.989 237.708 275.502 244.257 280.086C245.782 281.153 246.936 282.686 246.956 284.01C247.155 296.884 247.076 309.76 247.076 322.726C244.997 322.641 244.421 322.679 244.367 322.606C237.627 313.472 223.727 307.29 212.233 300.114C205.727 296.052 198.786 292.138 193.173 287.741C190.294 285.487 188.7 282.333 188.588 279.561C188.104 267.568 188.381 255.567 188.381 242.525L188.381 242.525Z" fill="#0045A5" fill-opacity="0.3"/>
<path opacity="0.18" d="M314.712 201.25C314.712 215.079 315.002 228.067 314.434 241.044C314.336 243.276 311.288 245.778 308.405 247.613C295.548 255.8 282.033 263.69 269.244 271.907C264.886 274.706 261.959 278.148 257.555 282.021C257.328 279.532 257.069 277.68 257.006 275.825C256.666 265.77 256.661 255.708 255.93 245.661C255.625 241.473 258.478 238.066 263.188 235.194C273.942 228.638 285.001 222.209 296.448 216.001C304.096 211.853 310.963 207.541 314.712 201.25Z" fill="#0045A5" fill-opacity="0.3"/>
<path opacity="0.18" d="M314.867 284.219C314.867 295.889 314.608 307.561 314.994 319.227C315.149 323.923 312.42 327.612 306.583 331.057C293.981 338.495 281.604 346.053 269.631 353.783C265.151 356.675 262.049 360.183 257.943 363.736C257.706 362.889 257.394 362.253 257.369 361.615C256.912 349.805 255.973 337.989 256.411 326.187C256.525 323.114 259.805 319.567 263.621 317.137C274.102 310.464 285.437 304.163 296.831 297.923C304.294 293.837 311.075 289.6 314.867 284.219L314.867 284.219Z" fill="#0045A5" fill-opacity="0.3"/>
<path opacity="0.18" d="M248.56 400C245.025 396.878 242.146 393.463 237.831 390.691C224.914 382.392 211.459 374.333 198.161 366.206C194.097 363.723 192.056 360.986 192.047 357.583C192.015 345.886 191.572 334.19 191.288 322.493C191.274 321.903 191.286 321.313 191.901 320.602C198.321 330.727 215.201 336.066 227.142 343.6C234.249 348.084 241.186 352.653 247.817 357.34C249.54 358.558 250.62 360.357 250.647 361.895C250.869 374.552 250.772 387.21 250.772 399.868C250.035 399.912 249.298 399.956 248.56 400Z" fill="#0045A5" fill-opacity="0.3"/>
</svg>
